<?xml version="1.0" standalone="no"?>
<!DOCTYPE svg PUBLIC "-//W3C//DTD SVG 20010904//EN"
 "http://www.w3.org/TR/2001/REC-SVG-20010904/DTD/svg10.dtd">
<svg version="1.0" xmlns="http://www.w3.org/2000/svg"
 width="512.000000pt" height="512.000000pt" viewBox="0 0 512.000000 512.000000"
 preserveAspectRatio="xMidYMid meet">

<g transform="translate(0.000000,512.000000) scale(0.100000,-0.100000)"
fill="#000000" stroke="none">
<path d="M2370 5105 c-287 -40 -550 -173 -761 -384 -397 -397 -506 -972 -283
-1491 129 -300 394 -565 694 -694 427 -184 901 -143 1285 111 133 88 290 245
378 378 299 453 299 1037 0 1490 -88 133 -245 290 -378 378 -278 183 -607 258
-935 212z"/>
<path d="M2125 2114 c-402 -37 -725 -160 -1037 -395 -112 -84 -298 -273 -384
-389 -241 -328 -365 -674 -390 -1090 -6 -106 -5 -119 15 -158 14 -28 35 -49
61 -62 39 -20 54 -20 2170 -20 2116 0 2131 0 2170 20 26 13 47 34 61 62 20 39
21 52 15 158 -31 514 -220 943 -576 1300 -301 304 -641 480 -1070 556 -78 14
-176 17 -545 19 -247 2 -468 1 -490 -1z"/>
</g>
</svg>
