<?xml version="1.0" standalone="no"?>
<!DOCTYPE svg PUBLIC "-//W3C//DTD SVG 20010904//EN"
 "http://www.w3.org/TR/2001/REC-SVG-20010904/DTD/svg10.dtd">
<svg version="1.0" xmlns="http://www.w3.org/2000/svg"
 width="512.000000pt" height="512.000000pt" viewBox="0 0 512.000000 512.000000"
 preserveAspectRatio="xMidYMid meet">

<g transform="translate(0.000000,512.000000) scale(0.100000,-0.100000)"
fill="#000000" stroke="none">
<path d="M2380 5114 c-19 -2 -78 -9 -130 -14 -546 -60 -1077 -316 -1484 -718
-807 -797 -996 -2026 -465 -3024 l48 -90 -135 -502 c-73 -276 -134 -517 -134
-535 0 -45 26 -97 62 -123 61 -43 78 -40 619 105 l505 135 126 -64 c1001 -510
2202 -316 2990 482 402 407 643 905 720 1484 16 123 16 497 0 620 -47 358
-163 698 -338 990 -224 375 -529 680 -904 904 -289 173 -634 291 -980 336 -88
12 -438 21 -500 14z m497 -329 c343 -51 641 -164 923 -351 248 -164 470 -386
634 -634 249 -377 370 -781 370 -1240 0 -494 -148 -949 -433 -1331 -363 -487
-873 -796 -1476 -896 -169 -28 -527 -25 -695 5 -288 52 -522 137 -775 281 -61
34 -101 51 -125 51 -19 0 -214 -48 -433 -106 -218 -59 -400 -104 -404 -101 -3
4 42 186 101 404 58 219 106 412 106 430 0 18 -19 65 -45 115 -160 291 -244
526 -291 813 -26 155 -26 525 0 675 66 386 205 711 430 1010 392 522 977 840
1641 894 95 8 364 -3 472 -19z"/>
<path d="M1688 3930 c-104 -31 -274 -170 -353 -289 -109 -165 -157 -343 -156
-586 3 -921 954 -1873 1876 -1876 243 -1 421 47 586 157 90 59 204 184 254
276 35 65 39 82 43 158 3 70 0 96 -18 145 -20 54 -42 80 -204 243 -225 228
-254 246 -396 246 -83 0 -101 -3 -146 -26 -74 -39 -109 -72 -171 -161 -31 -43
-62 -81 -70 -84 -19 -8 -165 31 -251 66 -230 93 -390 253 -483 483 -35 86 -74
232 -66 251 3 8 41 39 84 70 89 62 122 97 161 171 23 45 26 63 26 146 0 142
-18 171 -246 396 -161 160 -190 184 -241 203 -60 22 -174 28 -229 11z m266
-449 c102 -102 147 -154 144 -167 -1 -10 -59 -57 -128 -105 -150 -106 -175
-140 -165 -229 25 -228 118 -488 237 -663 54 -79 157 -187 237 -248 173 -130
456 -237 701 -264 89 -10 123 15 229 165 48 69 95 127 105 128 23 5 316 -284
316 -311 0 -25 -48 -93 -102 -145 -174 -169 -531 -201 -871 -78 -248 90 -459
227 -663 430 -203 204 -340 415 -430 663 -119 330 -92 687 66 861 45 48 132
112 155 112 13 0 75 -55 169 -149z"/>
</g>
</svg>
